<svg id="Capa_1" enable-background="new 0 0 512 512" height="512" viewBox="0 0 512 512" width="512" xmlns="http://www.w3.org/2000/svg"><path d="m459.788 373.93c19.25-34.986 30.212-75.176 30.212-117.93 0-135.31-109.69-245-245-245-62.303 0-119.162 23.268-162.395 61.572l-17.346 301.358z" fill="#319df5"/><path d="m65.259 373.93-2.628 45.658c44.854 49.97 109.936 81.412 182.369 81.412 92.556 0 173.114-51.33 214.788-127.07z" fill="#74727f"/><path d="m237.494 373.93c82.042 0 85.774 122.472 3.843 126.734-1.543.08-3.095.129-4.646.181 2.76.092 5.527.154 8.309.154 92.555 0 173.114-51.33 214.788-127.07h-222.294z" fill="#5f5e6a"/><path d="m63.57 420.646h56.261c8.944 0 16.261-7.318 16.261-16.261v-17.01h-97.917c7.521 11.816 16.021 22.948 25.395 33.271z" fill="#5f5e6a"/><path d="m82.263 404.385v-17.01h-44.088c7.521 11.815 16.021 22.947 25.395 33.271h34.954c-8.943 0-16.261-7.317-16.261-16.261z" fill="#4b4a55"/><path d="m344.256 388.73c-.003.003-.004.005-.007.007v22.381c0 5.24 4.288 9.527 9.528 9.527h93.572c5.241 0 9.528-4.287 9.528-9.527v-22.388c-23.029 0-86.845 0-112.621 0z" fill="#5f5e6a"/><path d="m344.249 388.738v22.381c0 5.24 4.288 9.527 9.528 9.527h50.749c-9.995-9.996-7.497-18.905-4.217-24.182 1.381-2.221.389-5.132-2.089-5.967-1.352-.456-2.518-1.061-3.531-1.767-19.72 0-38.89 0-50.432 0-.003.003-.005.005-.008.008z" fill="#363540"/><path d="m4.169 210.842c-2.728 14.638-4.169 29.729-4.169 45.158 0 50.08 15.038 96.642 40.828 135.441h99.678c-.479-3.611-.745-7.288-.745-11.03 0-46.04 37.323-83.363 83.363-83.363s83.363 37.323 83.363 83.363c0 3.742-.266 7.419-.745 11.03h38.508v-180.599z" fill="#ffc743"/><path d="m0 256c0 2.358.044 4.706.111 7.048h68.776v-4.947c-11.248-21.633-2.222-34.381 5.474-40.654 2.263-1.845 4.108-4.097 5.448-6.604h-75.64c-2.728 14.637-4.169 29.728-4.169 45.157z" fill="#fbb031"/><path d="m475.138 354.757c-8.944 0-16.261-7.318-16.261-16.261v-49.946c0-8.944 7.317-16.261 16.261-16.261h20.43v-.351c0-24.929-4.407-49.662-13.018-73.057l-22.52-61.185c-14.607-39.688-52.413-66.059-94.704-66.059h-21.079v319.803h136.11c8.4 0 15.21-6.81 15.21-15.209v-21.475h-20.429z" fill="#ffc743"/><path d="m456.877 287.55c0-8.944 7.317-16.261 16.261-16.261h22.423c.001.216.007.433.007.649 0-24.929-4.407-49.662-13.018-73.057l-22.52-61.184c-14.607-39.688-52.413-66.059-94.704-66.059h-21.079v160.467c28.243 31.062 64.116 56.622 112.628 71.03v-15.585z" fill="#4b4a55"/><path d="m401.556 126.777c2.086-2.018 3.185-4.832 2.964-7.726-1.932-25.313 24.556-24.724 24.563-24.724-17.616-14.353-39.977-22.69-63.755-22.69h-21.079v160.467c12.921 14.211 27.446 27.265 44.041 38.631 0-40.158 0-80.874 0-98.586-.001-28.293 8.291-40.559 13.266-45.372z" fill="#363540"/><path d="m3.839 212.568h78.424v-109.312h-28.813c-24.864 31.14-42.304 68.467-49.611 109.312z"/><path d="m188.201 103.256h-105.938v109.312h123.088v-108.031c-5.645-.843-11.375-1.281-17.15-1.281z" fill="#21212b"/><path d="m310.155 187.159c-14.231-22.16-28.48-38.806-41.208-51.173-17.481-16.986-39.769-27.892-63.596-31.45v108.031h122.625c-6.319-8.232-12.244-16.723-17.821-25.408z" fill="#363540"/><path d="m68.887 258.101h-68.86c.415 49.28 15.374 95.085 40.801 133.34h41.435v-119.963c0-7.388-5.989-13.377-13.376-13.377z" fill="#f7991e"/><path d="m456.877 287.55v51.946c0 8.944 7.317 16.261 16.261 16.261h22.43v-83.819c0-.216-.007-.433-.007-.649h-22.423c-8.944 0-16.261 7.317-16.261 16.261z" fill="#eeefeb"/><path d="m456.877 305.552v33.943c0 8.944 7.317 16.261 16.261 16.261h22.43v-33.943h-22.43c-8.944 0-16.261-7.317-16.261-16.261z" fill="#d6d6d0"/><path d="m501.231 175.243h-16.745c-5.923 0-10.769 4.652-10.769 10.337v41.043c0 5.685 4.846 10.337 10.769 10.337h16.745c5.923 0 10.769-4.652 10.769-10.337v-41.043c0-5.685-4.846-10.337-10.769-10.337z" fill="#eeefeb"/><path d="m501.231 210.135h-16.745c-5.923 0-10.769-4.652-10.769-10.337v26.824c0 5.685 4.846 10.337 10.769 10.337h16.745c5.923 0 10.769-4.652 10.769-10.337v-26.824c0 5.685-4.846 10.337-10.769 10.337z" fill="#d6d6d0"/><path d="m223.124 290.806c-48.066 0-87.031 38.965-87.031 87.031 0 4.629.369 9.17 1.065 13.603h27.035c-1.01-4.376-1.561-8.925-1.561-13.603 0-33.356 27.136-60.492 60.492-60.492s60.492 27.137 60.492 60.492c0 4.678-.551 9.227-1.561 13.603h27.035c.696-4.433 1.065-8.974 1.065-13.603 0-48.065-38.965-87.031-87.031-87.031z" fill="#4b4a55"/><path d="m199.217 322.28c-.097-1.408-1.025-2.678-2.418-3.138-17.327-5.725-6.882-21.77-6.882-21.77-31.591 13.052-53.823 44.16-53.823 80.465 0 4.629.369 9.17 1.065 13.603h27.035c-1.01-4.376-1.561-8.924-1.561-13.603-.002-24.867 15.085-46.27 36.584-55.557z" fill="#363540"/><path d="m223.123 440.363c-34.476 0-62.525-28.049-62.525-62.525s28.049-62.525 62.525-62.525 62.525 28.049 62.525 62.525c.001 34.476-28.048 62.525-62.525 62.525zm0-97.822c-19.462 0-35.296 15.834-35.296 35.297 0 19.462 15.834 35.296 35.296 35.296s35.296-15.834 35.296-35.296c.001-19.463-15.833-35.297-35.296-35.297z" fill="#21212b"/><ellipse cx="223.124" cy="377.838" fill="#d6d6d0" rx="35.296" ry="35.296" transform="matrix(.927 -.375 .375 .927 -125.285 111.085)"/><path d="m187.827 377.838c0 19.462 15.834 35.296 35.296 35.296 7.591 0 14.625-2.417 20.387-6.511-2.356-2.771-2.874-6.29-2.902-8.649-.019-1.558-1.061-2.901-2.546-3.375-24.562-7.835-23.538-29.111-22.203-37.116.279-1.675-.655-3.349-2.251-3.93-4.284-1.557-6.362-4.084-7.24-6.775-11.031 5.977-18.541 17.657-18.541 31.06z" fill="#c6c6c1"/><path d="m223.123 440.363c-34.476 0-62.525-28.049-62.525-62.525s28.049-62.525 62.525-62.525 62.525 28.049 62.525 62.525c.001 34.476-28.048 62.525-62.525 62.525zm0-97.822c-19.462 0-35.296 15.834-35.296 35.297 0 19.462 15.834 35.296 35.296 35.296s35.296-15.834 35.296-35.296c.001-19.463-15.833-35.297-35.296-35.297z" fill="#21212b"/><path d="m265.985 423.297c-10.182-.007-11.823-5.365-11.751-9.039.036-1.82-1.279-3.357-3.076-3.651-3.666-.599-6.066-2.125-7.647-3.983-5.763 4.094-12.796 6.511-20.387 6.511-19.462 0-35.296-15.834-35.296-35.296 0-13.402 7.51-25.083 18.541-31.058-.965-2.958-.478-6.113.196-8.407.516-1.756-.389-3.608-2.076-4.32-5.893-2.488-6.006-7.52-5.322-10.824.214-1.032-.063-2.061-.666-2.854-22.267 9.578-37.902 31.727-37.902 57.464 0 34.476 28.049 62.525 62.525 62.525 16.578-.002 31.659-6.5 42.861-17.068z"/><path d="m223.123 423.298c-25.067 0-45.46-20.393-45.46-45.46s20.393-45.46 45.46-45.46 45.46 20.393 45.46 45.46c0 25.066-20.393 45.46-45.46 45.46zm0-70.594c-13.859 0-25.133 11.275-25.133 25.134s11.275 25.133 25.133 25.133c13.859 0 25.133-11.275 25.133-25.133s-11.274-25.134-25.133-25.134z" fill="#eeefeb"/><path d="m223.123 423.298c11.578 0 22.153-4.357 30.188-11.509-.544-.608-1.29-1.041-2.153-1.181-9.13-1.493-10.502-8.691-10.549-12.632-.007-.604-.172-1.174-.453-1.676-4.482 4.138-10.466 6.672-17.032 6.672-13.859 0-25.133-11.275-25.133-25.134 0-10.892 6.966-20.185 16.676-23.665-.306-.262-.661-.474-1.058-.618-8.992-3.268-8.331-10.801-7.045-15.182.279-.95.132-1.921-.319-2.732-16.731 6.717-28.581 23.094-28.581 42.198-.001 25.065 20.393 45.459 45.459 45.459z" fill="#d6d6d0"/><path d="m344.249 229.394v162.047h112.628v-91.017c-48.512-14.408-84.385-39.968-112.628-71.03z" fill="#f7991e"/><path d="m388.289 268.025c-16.595-11.366-31.119-24.42-44.04-38.631v162.047h55.5c-.414-.41-.926-.74-1.529-.943-11.247-3.791-9.93-17.718-9.93-17.718s-.001-52.353-.001-104.755z" fill="#ed8718"/><path d="m446.975 205.79-17.129-47.34c-11.111-30.708-39.866-51.111-72.033-51.111h-13.564v124.765c28.243 31.062 64.116 56.622 112.628 71.03v-15.584-25.234c0-19.289-3.352-38.425-9.902-56.526z" fill="#363540"/><path d="m401.556 126.777c1.097-1.061 1.911-2.345 2.414-3.742-13.014-9.962-29.105-15.696-46.156-15.696h-13.564v124.765c12.921 14.211 27.446 27.265 44.04 38.631 0-40.158 0-80.874 0-98.586-.001-28.293 8.291-40.559 13.266-45.372z" fill="#21212b"/><path d="m378.126 285.439c-5.613 0-10.163-4.55-10.163-10.163v-22.881c0-5.613 4.55-10.163 10.163-10.163s10.163 4.55 10.163 10.163v22.881c0 5.613-4.55 10.163-10.163 10.163z" fill="#ffc743"/><path d="m449.254 212.568h.008c-2.069-6.61-4.538-12.775-19.416-54.118-11.111-30.708-39.866-51.111-72.033-51.111h-13.565v105.228h49.649c4.046 0 7.704 2.405 9.309 6.119l5.251 12.154c1.604 3.714 5.263 6.119 9.309 6.119h37.166c-1.273-8.258-3.175-16.411-5.678-24.391z" fill="#21212b"/><path d="m388.289 172.149c0-28.293 8.292-40.559 13.266-45.372 1.097-1.061 1.911-2.345 2.414-3.742-13.014-9.962-29.105-15.696-46.156-15.696h-13.565v105.228h44.041c0-17.21 0-31.64 0-40.418z"/><path d="m181.584 71.637c50.822 0 97.742 27.575 122.176 72.139 1.728 3.152 3.356 6.211 4.87 9.137 10.57 20.43 22.285 40.081 35.619 58.283v-139.559z" fill="#4b4a55"/><path d="m305.493 140.689c-23.388-42.656-68.3-69.051-116.947-69.051h-104.887c-10.982 9.617-21.093 20.202-30.209 31.618h134.751c30.149 0 59.122 11.721 80.746 32.731 12.728 12.366 26.977 29.013 41.208 51.173 10.117 15.755 21.331 30.908 34.094 44.944v-26.881c-12.763-17.423-23.977-36.232-34.094-55.788-1.449-2.801-3.007-5.729-4.662-8.746z" fill="#eeefeb"/><path d="m53.45 103.256h28.132c-.32-1.223-.75-2.417-1.309-3.558-8.376-17.102 3.385-28.061 3.385-28.061-10.981 9.618-21.092 20.203-30.208 31.619z" fill="#d6d6d0"/></svg>